<svg xmlns="http://www.w3.org/2000/svg" viewBox="0 0 41 34" width="41" height="34"><style>
		tspan { white-space:pre }
		.shp0 { fill: #000000 } 
	</style><g id="Items"><path id="Icon-Laptop" fill-rule="evenodd" class="shp0" d="M6.91 0.18L33.82 0.18C36.05 0.18 37.86 1.99 37.86 4.22L37.86 21.71C37.86 22.18 37.78 22.63 37.63 23.05L37.86 23.05L37.86 25.75L33.82 25.75L33.82 4.22L6.91 4.22L6.91 25.75L2.88 25.75L2.88 23.05L3.11 23.05C2.96 22.63 2.88 22.18 2.88 21.71L2.88 4.22C2.88 1.99 4.68 0.18 6.91 0.18ZM2.88 28.44L37.86 28.44C39.34 28.44 40.55 29.64 40.55 31.13C40.55 32.61 38 33.82 36.51 33.82L4.22 33.82C2.74 33.82 0.19 32.61 0.19 31.13C0.19 29.64 1.39 28.44 2.88 28.44ZM14.99 31.8C14.99 32.17 15.59 32.47 16.33 32.47L24.4 32.47C25.15 32.47 25.75 32.17 25.75 31.8C25.75 31.43 25.15 31.13 24.4 31.13L16.33 31.13C15.59 31.13 14.99 31.43 14.99 31.8ZM11.33 15.97L13.23 14.06C13.75 13.54 14.6 13.54 15.12 14.06L17.61 16.56L25.61 8.52C26.13 7.99 26.98 7.99 27.5 8.52L29.4 10.42C29.92 10.95 29.92 11.8 29.4 12.33L18.98 22.79C18.53 23.24 17.84 23.3 17.33 22.98C16.89 23.09 16.41 22.97 16.07 22.63L11.33 17.87C10.81 17.34 10.81 16.49 11.33 15.97Z"></path></g></svg>