<svg xmlns="http://www.w3.org/2000/svg" viewBox="0 0 39 40" width="39" height="40"><style>
		tspan { white-space:pre }
		.shp0 { fill: #000000 } 
	</style><g id="Items"><path id="Icon-Basket" fill-rule="evenodd" class="shp0" d="M0.17 13.57C0.17 11.67 1.72 10.13 3.62 10.13L7.5 10.13C7.56 9.91 7.65 9.69 7.77 9.49L11.9 2.33C12.66 1.02 14.35 0.56 15.66 1.32C16.98 2.09 17.43 3.77 16.67 5.09L13.76 10.13L25.14 10.13L22.23 5.09C21.47 3.77 21.92 2.09 23.23 1.32C24.55 0.56 26.23 1.02 26.99 2.33L31.12 9.49C31.24 9.69 31.33 9.91 31.4 10.13L35.28 10.13C37.18 10.13 38.72 11.67 38.72 13.57C38.72 15.47 37.18 17.01 35.28 17.01L3.62 17.01C1.72 17.01 0.17 15.47 0.17 13.57ZM34.7 39.04L4.2 39.04L3.01 18.39L35.89 18.39L34.7 39.04ZM18.07 25.27L18.07 33.53C18.07 34.29 18.69 34.91 19.45 34.91C20.21 34.91 20.82 34.29 20.82 33.53L20.82 25.27C20.82 24.51 20.21 23.9 19.45 23.9C18.69 23.9 18.07 24.51 18.07 25.27ZM26.33 25.27L26.33 33.53C26.33 34.29 26.95 34.91 27.71 34.91C28.47 34.91 29.08 34.29 29.08 33.53L29.08 25.27C29.08 24.51 28.47 23.9 27.71 23.9C26.95 23.9 26.33 24.51 26.33 25.27ZM9.81 25.27L9.81 33.53C9.81 34.29 10.43 34.91 11.19 34.91C11.95 34.91 12.56 34.29 12.56 33.53L12.56 25.27C12.56 24.51 11.95 23.9 11.19 23.9C10.43 23.9 9.81 24.51 9.81 25.27Z"></path></g></svg>