<svg xmlns="http://www.w3.org/2000/svg" viewBox="0 0 35 47" width="35" height="47"><style>
		tspan { white-space:pre }
		.shp0 { fill: #777777 } 
	</style><g id="6th"><g id="Items"><path id="Icon-Graph" class="shp0" d="M31.13 0.24C29.14 0.24 27.54 1.84 27.54 3.82L27.54 42.55C27.54 44.53 29.14 46.14 31.13 46.14C33.11 46.14 34.72 44.53 34.72 42.55L34.72 3.82C34.72 1.84 33.11 0.24 31.13 0.24ZM17.68 13.02C15.69 13.02 14.09 14.62 14.09 16.6L14.09 42.55C14.09 44.53 15.69 46.14 17.68 46.14C19.66 46.14 21.27 44.53 21.27 42.55L21.27 16.6C21.27 14.62 19.66 13.02 17.68 13.02ZM4.23 25.8C2.24 25.8 0.63 27.4 0.63 29.38L0.63 42.55C0.63 44.53 2.24 46.14 4.23 46.14C6.21 46.14 7.82 44.53 7.82 42.55L7.82 29.38C7.82 27.4 6.21 25.8 4.23 25.8Z"></path></g></g></svg>