<svg xmlns="http://www.w3.org/2000/svg" viewBox="0 0 29 39" width="29" height="39"><style>
		tspan { white-space:pre }
		.shp0 { fill: #000000 } 
	</style><g id="Items"><path id="Icon-Locked" fill-rule="evenodd" class="shp0" d="M14.97 0.77C20.12 0.77 24.3 4.43 24.3 8.94L24.3 18.27L25.47 18.27C27.4 18.27 28.97 19.84 28.97 21.77L28.97 34.6C28.97 36.54 27.4 38.1 25.47 38.1L4.47 38.1C2.54 38.1 0.97 36.54 0.97 34.6L0.97 21.77C0.97 19.84 2.54 18.27 4.47 18.27L5.64 18.27L5.64 8.94C5.64 4.43 9.81 0.77 14.97 0.77ZM10.3 8.94L10.3 17.11C10.3 17.51 10.4 17.91 10.57 18.27L19.37 18.27C19.54 17.91 19.63 17.51 19.63 17.11L19.63 8.94C19.63 7.01 17.55 5.44 14.97 5.44C12.39 5.44 10.3 7.01 10.3 8.94ZM12.63 32.27C12.63 33.56 13.68 34.6 14.97 34.6C16.26 34.6 17.3 33.56 17.3 32.27L17.3 30.48C18.7 29.67 19.63 28.17 19.63 26.44C19.63 23.86 17.55 21.77 14.97 21.77C12.39 21.77 10.3 23.86 10.3 26.44C10.3 28.17 11.24 29.67 12.63 30.48L12.63 32.27Z"></path></g></svg>