<svg xmlns="http://www.w3.org/2000/svg" viewBox="0 0 20 31" width="20" height="31"><style>
		tspan { white-space:pre }
		.shp0 { fill: #ececec } 
	</style><g id="Top Footer"><g id="Left Column"><path id="iPhone potrait" fill-rule="evenodd" class="shp0" d="M2.72 0.82L17.65 0.82C18.68 0.82 19.52 1.66 19.52 2.69L19.52 28.81C19.52 29.84 18.68 30.68 17.65 30.68L2.72 30.68C1.69 30.68 0.86 29.84 0.86 28.81L0.86 2.69C0.86 1.66 1.69 0.82 2.72 0.82ZM5.52 3.16C5.52 3.41 5.73 3.62 5.99 3.62L14.38 3.62C14.64 3.62 14.85 3.41 14.85 3.16C14.85 2.9 14.64 2.69 14.38 2.69L5.99 2.69C5.73 2.69 5.52 2.9 5.52 3.16ZM2.72 26.95L17.65 26.95L17.65 5.49L2.72 5.49L2.72 26.95ZM9.25 28.81C9.25 29.33 9.67 29.74 10.19 29.74C10.7 29.74 11.12 29.33 11.12 28.81C11.12 28.3 10.7 27.88 10.19 27.88C9.67 27.88 9.25 28.3 9.25 28.81Z"></path></g></g></svg>