<svg xmlns="http://www.w3.org/2000/svg" viewBox="0 0 26 21" width="26" height="21"><style>
		tspan { white-space:pre }
		.shp0 { fill: #ececec } 
	</style><g id="Top Footer"><g id="Middle Column"><path id="News Icon" fill-rule="evenodd" class="shp0" d="M2.74 0.23L22.71 0.23C24.09 0.23 25.21 1.35 25.21 2.73L25.21 17.71C25.21 19.09 24.09 20.21 22.71 20.21L2.74 20.21C1.36 20.21 0.24 19.09 0.24 17.71L0.24 2.73C0.24 1.35 1.36 0.23 2.74 0.23ZM14.39 10.22C14.39 10.68 14.76 11.05 15.22 11.05L22.71 11.05C23.17 11.05 23.55 10.68 23.55 10.22C23.55 9.76 23.17 9.39 22.71 9.39L15.22 9.39C14.76 9.39 14.39 9.76 14.39 10.22ZM14.39 6.89C14.39 7.35 14.76 7.72 15.22 7.72L22.71 7.72C23.17 7.72 23.55 7.35 23.55 6.89C23.55 6.43 23.17 6.06 22.71 6.06L15.22 6.06C14.76 6.06 14.39 6.43 14.39 6.89ZM14.39 13.55C14.39 14.01 14.76 14.38 15.22 14.38L22.71 14.38C23.17 14.38 23.55 14.01 23.55 13.55C23.55 13.09 23.17 12.72 22.71 12.72L15.22 12.72C14.76 12.72 14.39 13.09 14.39 13.55ZM1.91 6.06L1.91 14.38C1.91 14.84 2.28 15.21 2.74 15.21L11.06 15.21C11.52 15.21 11.89 14.84 11.89 14.38L11.89 6.06C11.89 5.6 11.52 5.22 11.06 5.22L2.74 5.22C2.28 5.22 1.91 5.6 1.91 6.06Z"></path></g></g></svg>