<svg xmlns="http://www.w3.org/2000/svg" viewBox="0 0 26 23" width="26" height="23"><style>
		tspan { white-space:pre }
		.shp0 { fill: #ececec } 
	</style><g id="Top Footer"><g id="Middle Column"><path id="Photo Icon" fill-rule="evenodd" class="shp0" d="M1.58 0.27L23.63 0.27C24.5 0.27 25.21 0.97 25.21 1.84L25.21 20.74C25.21 21.61 24.5 22.32 23.63 22.32L1.58 22.32C0.71 22.32 0 21.61 0 20.74L0 1.84C0 0.97 0.71 0.27 1.58 0.27ZM2.37 4.2L2.37 18.38C2.37 19.25 3.07 19.96 3.94 19.96L21.27 19.96C22.14 19.96 22.85 19.25 22.85 18.38L22.85 4.2C22.85 3.33 22.14 2.63 21.27 2.63L3.94 2.63C3.07 2.63 2.37 3.33 2.37 4.2ZM7.49 4.2C9.01 4.2 10.24 5.44 10.24 6.96C10.24 8.48 9.01 9.72 7.49 9.72C5.96 9.72 4.73 8.48 4.73 6.96C4.73 5.44 5.96 4.2 7.49 4.2ZM3.15 18.38L7.88 12.08L11.03 16.02L11.82 16.02L17.33 4.99L22.06 18.38L3.15 18.38Z"></path></g></g></svg>