<svg xmlns="http://www.w3.org/2000/svg" xmlns:xlink="http://www.w3.org/1999/xlink" height="595.28px" id="Layer_1" viewBox="0 0 841.89 595.28" width="841.89px" xml:space="preserve"><path d="M717.598,296.334c0,163.656-132.678,296.324-296.334,296.324S124.93,459.99,124.93,296.334  C124.93,132.668,257.607,0,421.264,0S717.598,132.668,717.598,296.334z" fill="#4C4C4C"></path><g><path d="M712.654,245.622l-0.814-0.018l0.009-0.31l-0.815-0.018l0.009-0.314l-0.814-0.018l0.009-0.31l-0.815-0.018   l0.009-0.306l-0.814-0.018l0.009-0.31l-0.815-0.018l0.009-0.314l-0.814-0.018l0.009-0.314l-0.815-0.018l0.009-0.306l-0.806-0.018   l0.009-0.311l-0.815-0.018l0.009-0.314l-0.814-0.018l0.009-0.31l-0.815-0.018l0.009-0.31l-0.814-0.018l0.009-0.31l-0.815-0.018   l0.009-0.31l-0.814-0.018l0.009-0.31l-0.815-0.018l0.009-0.311l-0.814-0.018l0.009-0.31l-0.815-0.018l0.009-0.31l-0.814-0.018   l0.009-0.314l-0.815-0.018l0.009-0.31l-0.806-0.018l0.009-0.306l-0.815-0.018l0.01-0.314l-0.824-0.018l0.009-0.311l-0.807-0.018   l0.01-0.31l-0.815-0.018l0.009-0.306l-0.815-0.018l0.01-0.314l-0.815-0.018l0.009-0.314l-0.815-0.018l0.01-0.31l-0.815-0.018   l0.009-0.31l-0.815-0.018l0.01-0.311l-0.815-0.018l0.009-0.31l-0.806-0.018l0.009-0.31l-0.815-0.018l0.009-0.311l-0.814-0.018   l0.009-0.31l-0.815-0.018l0.009-0.31l-0.814-0.018l0.009-0.31l-0.815-0.018l0.009-0.31l-0.814-0.018l0.009-0.314l-0.815-0.018   l0.009-0.31l-0.814-0.018l0.009-0.311l-0.815-0.018l0.009-0.31l-0.814-0.018l0.009-0.31l-0.815-0.018l0.009-0.31l-0.806-0.018   l0.009-0.31l-0.815-0.018l0.009-0.31l-0.814-0.018l0.009-0.314l-0.815-0.018l0.009-0.311l-0.814-0.018l0.009-0.31l-0.815-0.018   l0.009-0.31l-0.814-0.018l0.009-0.31l-0.815-0.018l0.009-0.31l-0.814-0.018l0.009-0.31l-0.815-0.018l0.009-0.31l-0.814-0.018   l0.009-0.31l-0.815-0.018l0.009-0.314l-0.814-0.018l0.009-0.306l-0.807-0.018l0.009-0.31l-0.814-0.018l0.009-0.314l-0.815-0.018   l0.009-0.31l-0.814-0.018l0.009-0.31l-0.815-0.018l0.009-0.31l-0.814-0.018l0.009-0.31l-0.815-0.018l0.009-0.314l-0.814-0.018   l0.009-0.31l-0.815-0.018l0.01-0.306l-0.815-0.018l0.009-0.314l-0.815-0.018l0.01-0.31l-0.815-0.018l0.009-0.31l-0.806-0.018   l0.009-0.31l-0.815-0.018l0.009-0.31l-0.814-0.018l0.009-0.31l-0.815-0.018l0.009-0.311l-0.814-0.018l0.009-0.31l-0.815-0.018   l0.009-0.31l-0.814-0.018l0.009-0.314l-0.815-0.018l0.009-0.31l-0.814-0.018l0.009-0.31l-0.815-0.018l0.009-0.31l-0.814-0.018   l0.009-0.314l-0.815-0.018l0.009-0.31l-0.806-0.018l0.009-0.306l-0.815-0.018l0.009-0.314l-0.814-0.018l0.009-0.31l-0.815-0.018   l0.009-0.31l-0.814-0.018l0.009-0.31l-0.815-0.018l0.009-0.31l-0.814-0.018l0.009-0.31l-0.815-0.018l0.009-0.31l-0.814-0.018   l0.009-0.311l-0.815-0.018l0.009-0.314l-0.814-0.018l0.009-0.31l-0.815-0.018l0.009-0.305l-0.806-0.018l0.009-0.31l-0.815-0.018   l0.009-0.314l-0.814-0.018l0.009-0.314l-0.815-0.018l0.009-0.306l-0.814-0.018l0.009-0.31l-0.815-0.018l0.009-0.314l-0.814-0.018   l0.009-0.31l-0.815-0.018l0.009-0.31l-0.806-0.018l0.009-0.306l-0.824-0.018l0.009-0.314l-0.814-0.018l0.009-0.311l-0.815-0.018   l0.009-0.31l-0.814-0.018l0.009-0.31l-0.815-0.018l0.009-0.311l-0.814-0.018l0.009-0.314l-0.807-0.018l0.01-0.31l-0.815-0.018   l0.009-0.306l-0.814-0.018l0.009-0.314l-0.815-0.018l0.009-0.31l-0.814-0.018l0.009-0.31l-0.815-0.018l0.009-0.311l-0.814-0.018   l0.009-0.31l-0.815-0.018l0.009-0.314l-0.814-0.018l0.009-0.31l-0.807-0.018l0.009-0.31l-0.814-0.018l0.009-0.31l-0.815-0.018   l0.009-0.31l-0.814-0.018l0.009-0.311l-0.815-0.018l0.009-0.31l-0.814-0.018l0.009-0.31l-0.815-0.018l0.009-0.31l-0.814-0.018   l0.009-0.31l-0.815-0.018l0.009-0.31l-0.814-0.018l0.009-0.314l-0.815-0.018l0.009-0.311l-0.806-0.018l0.009-0.31l-0.815-0.018   l0.009-0.31l-0.823-0.018l0.009-0.311l-0.815-0.018l0.009-0.31l-0.806-0.018l0.009-0.31l-0.815-0.018l0.009-0.31l-0.814-0.018   l0.009-0.314l-0.815-0.018l0.009-0.31l-0.814-0.018l0.009-0.31l-0.815-0.018l0.009-0.311l-0.814-0.018l0.009-0.31l-0.815-0.018   l0.009-0.314l-0.814-0.018l0.009-0.306l-0.807-0.018l0.009-0.31l-0.814-0.018l0.009-0.31l-0.824-0.018l0.009-0.314l-0.806-0.018   l0.009-0.306l-0.815-0.018l0.01-0.31l-0.815-0.018l0.009-0.314l-0.815-0.018l0.01-0.31l-0.815-0.018l0.009-0.31l-0.815-0.018   l0.01-0.31l-0.815-0.018l0.009-0.31l-0.815-0.018l0.01-0.314l-0.807-0.018l0.009-0.31l-0.814-0.018l0.009-0.306l-0.815-0.018   l0.009-0.314l-0.814-0.018l0.009-0.31l-0.824-0.018l0.009-0.31l-0.806-0.018l0.009-0.31l-0.815-0.018l0.009-0.31l-0.814-0.018   l0.009-0.314l-0.815-0.018l0.009-0.31l-0.814-0.018l0.009-0.31l-0.815-0.018l0.009-0.31l-0.814-0.018l0.009-0.31l-0.815-0.018   l0.009-0.31l-0.806-0.018l0.009-0.31l-0.824-0.018l0.009-0.31l-0.814-0.018l0.009-0.31l-0.807-0.018l0.009-0.31l-0.814-0.018   l0.009-0.311l-0.815-0.018l0.009-0.314l-0.814-0.018l0.009-0.31l-0.815-0.018l0.009-0.31l-0.814-0.018l0.009-0.31l-0.815-0.018   l0.009-0.31l-0.814-0.018l0.009-0.31l-0.815-0.018l0.009-0.31l-0.806-0.018l0.009-0.31l-0.815-0.018l0.009-0.31l-0.814-0.018   l0.009-0.314l-0.815-0.018l0.009-0.31l-0.814-0.018l0.009-0.31l-0.815-0.018l0.009-0.31l-0.814-0.018l0.009-0.31l-0.815-0.018   l0.009-0.31l-0.814-0.018l0.009-0.314l-0.815-0.018l0.009-0.306l-0.814-0.018l0.009-0.314l-0.815-0.018l0.01-0.31l-0.815-0.018   l0.009-0.31l-0.815-0.018l0.01-0.31l-0.815-0.018l0.009-0.31l-0.806-0.018l0.009-0.314l-0.815-0.018l0.009-0.306l-0.815-0.018   l0.01-0.31l-0.815-0.018l0.009-0.31l-0.814-0.018l0.009-0.311l-0.815-0.018l0.009-0.31l-0.814-0.018l0.009-0.314l-0.807-0.018   l0.009-0.306l-0.814-0.018l0.009-0.314l-0.824-0.018l0.009-0.31l-0.814-0.018l0.009-0.31l-0.815-0.018l0.009-0.314l-0.814-0.018   l0.009-0.306l-0.815-0.018l0.009-0.314l-0.806-0.018l0.009-0.31l-0.815-0.018l0.009-0.31l-0.814-0.018l0.009-0.31l-0.815-0.018   l0.009-0.31l-0.814-0.018l0.009-0.311l-0.815-0.018l0.009-0.314l-0.814-0.018l0.009-0.31l-0.815-0.018l0.009-0.31l-0.814-0.018   l0.009-0.31l-0.815-0.018l0.009-0.31l-17.248-0.354l-0.283,13.824l-0.655-0.013l0.549-0.306l-1.338-0.026l0.541-0.301l-1.338-0.027   l0.531-0.297l-1.355-0.026l0.55-0.306l-1.347-0.026l0.54-0.301l-1.347-0.027l0.541-0.301l-1.347-0.027l0.54-0.301l-1.346-0.026   l0.54-0.301l-1.347-0.027l0.54-0.301l-1.347-0.027l0.541-0.301l-1.338-0.026l0.541-0.301l-1.355-0.026l0.549-0.306l-1.355-0.027   l0.54-0.301l-1.337-0.027l0.54-0.301l-1.347-0.026l0.541-0.301l-1.347-0.027l0.54-0.301l-1.355-0.027l0.549-0.306l-1.337-0.026   l0.531-0.297l-1.347-0.026l0.541-0.301l-1.347-0.027l0.54-0.301l-1.355-0.026l0.549-0.306l-1.346-0.026l0.54-0.301l-1.347-0.027   l0.541-0.301l-1.338-0.027l0.54-0.301l-1.347-0.026l0.541-0.301l-1.355-0.027l0.549-0.305l-1.338-0.027l0.532-0.297l-1.347-0.026   l0.54-0.301l-1.347-0.026l0.541-0.301l-1.355-0.026l0.549-0.306l-1.338-0.027l0.532-0.297l-1.355-0.026l0.549-0.306l-1.338-0.027   l0.541-0.301l-1.355-0.027l0.54-0.301l-1.355-0.026l0.55-0.306l-1.329-0.026l0.531-0.297l-1.364-0.026l0.55-0.306l-1.338-0.027   l0.54-0.301l-1.347-0.026l0.541-0.301l-1.338-0.027l0.531-0.296l-1.355-0.027l0.55-0.306l-1.347-0.026l0.54-0.301l-1.347-0.026   l0.541-0.301l-1.347-0.026l0.54-0.302l-1.346-0.026l0.54-0.301l-1.347-0.026l0.54-0.301l-1.347-0.026l0.55-0.306l-1.355-0.027   l0.54-0.301l-1.346-0.026l0.54-0.301l-67.849-1.382c-8.992-0.186-18.657,0.665-29.003,2.551   c-10.445,2.232-20.57,7.202-30.377,14.936c-14.325,13.297-21.651,28.26-21.996,44.923c-0.284,13.784,4.429,25.965,14.139,36.551   c5.333,6.538,12.181,11.229,20.446,14.192c0.239,0.106,0.496,0.186,0.726,0.288c0.266,0.115,0.541,0.212,0.807,0.323   c0.266,0.124,0.558,0.226,0.833,0.341c0.248,0.111,0.505,0.195,0.744,0.301c0.274,0.124,0.558,0.226,0.833,0.345   c0.266,0.115,0.541,0.213,0.806,0.324c0.266,0.12,0.541,0.217,0.806,0.332c0.275,0.12,0.567,0.222,0.842,0.336   c0.248,0.115,0.514,0.204,0.771,0.311c0.257,0.119,0.541,0.217,0.806,0.332c0.248,0.11,0.514,0.204,0.762,0.31   c0.257,0.12,0.531,0.217,0.788,0.328c0.292,0.128,0.594,0.239,0.877,0.363c0.292,0.128,0.594,0.23,0.886,0.354   c0.212,0.102,0.452,0.173,0.673,0.27c0.274,0.12,0.558,0.226,0.833,0.341c0.257,0.115,0.522,0.212,0.78,0.323   c0.274,0.124,0.566,0.23,0.85,0.345c0.275,0.128,0.567,0.23,0.851,0.35c0.239,0.106,0.487,0.186,0.726,0.288   c0.275,0.124,0.567,0.23,0.842,0.345c0.257,0.115,0.532,0.212,0.797,0.323c0.239,0.111,0.505,0.204,0.753,0.31   c0.292,0.133,0.603,0.244,0.895,0.368c0.257,0.12,0.531,0.208,0.797,0.319c0.248,0.115,0.514,0.204,0.771,0.314   c0.266,0.12,0.541,0.217,0.806,0.333c0.257,0.115,0.531,0.208,0.788,0.319c0.292,0.128,0.594,0.239,0.886,0.363   c0.23,0.102,0.469,0.177,0.7,0.279c0.274,0.124,0.567,0.23,0.851,0.35c0.266,0.12,0.549,0.222,0.815,0.336   c0.248,0.106,0.505,0.195,0.753,0.301c0.284,0.133,0.593,0.239,0.886,0.368c0.248,0.111,0.523,0.204,0.771,0.314   c0.115,0.049,0.23,0.098,0.345,0.146c-0.354,1.467-0.602,3.061-0.646,4.917c-0.098,4.961,0.921,9.275,3.074,12.873   c1.843,3.693,3.969,7.174,6.343,10.443c-7.928,0.062-17.886,0.85-29.907,2.357c-12.137,1.852-23.768,5.818-34.877,11.852   c-9.913,5.635-16.805,12.279-20.694,19.896c-4.013,7.629-6.077,14.6-6.201,20.871c-0.266,12.881,5.43,24.07,17.053,33.566   c4.616,4.062,10.259,7.336,16.841,9.883c0.018,0.008,0.035,0.014,0.053,0.021c0.275,0.115,0.559,0.227,0.833,0.342   c0.266,0.115,0.549,0.221,0.815,0.332c0.266,0.109,0.541,0.217,0.806,0.328c0.266,0.109,0.541,0.217,0.806,0.326   c0.266,0.111,0.541,0.223,0.815,0.334c0.257,0.105,0.514,0.207,0.771,0.309c0.257,0.111,0.514,0.217,0.78,0.324   c0.284,0.119,0.576,0.234,0.868,0.354c0.248,0.107,0.505,0.205,0.753,0.307c0.284,0.123,0.576,0.234,0.859,0.354   c0.257,0.107,0.523,0.213,0.789,0.318c0.266,0.111,0.531,0.213,0.797,0.324c0.266,0.115,0.541,0.221,0.815,0.332   c0.266,0.111,0.54,0.217,0.806,0.328c0.257,0.105,0.514,0.213,0.771,0.314c0.275,0.119,0.567,0.23,0.842,0.346   c0.257,0.105,0.522,0.213,0.779,0.314c0.275,0.119,0.558,0.23,0.833,0.34c0.257,0.111,0.522,0.213,0.788,0.32   c0.275,0.119,0.549,0.225,0.833,0.34c0.248,0.107,0.514,0.209,0.771,0.311c0.275,0.119,0.558,0.23,0.833,0.346   c0.257,0.105,0.523,0.213,0.789,0.318c0.266,0.111,0.532,0.217,0.797,0.328s0.532,0.217,0.797,0.328s0.541,0.217,0.806,0.328   c0.283,0.119,0.567,0.23,0.851,0.346c0.257,0.105,0.514,0.207,0.771,0.309c0.274,0.121,0.558,0.227,0.833,0.342   c0.257,0.111,0.522,0.213,0.788,0.318c0.257,0.111,0.532,0.217,0.806,0.328c0.257,0.111,0.514,0.213,0.78,0.318   c0.257,0.111,0.531,0.219,0.797,0.328c0.292,0.125,0.594,0.244,0.895,0.367c0.239,0.104,0.487,0.195,0.735,0.293   c0.266,0.115,0.549,0.227,0.824,0.336c0.257,0.111,0.522,0.219,0.789,0.324c0.266,0.115,0.549,0.227,0.824,0.336   c0.266,0.111,0.541,0.217,0.806,0.328c0.257,0.107,0.514,0.209,0.78,0.314c0.274,0.119,0.567,0.234,0.85,0.35   c0.257,0.111,0.523,0.213,0.78,0.32c0.257,0.109,0.522,0.213,0.788,0.318c0.266,0.111,0.541,0.221,0.807,0.332   c0.283,0.119,0.576,0.23,0.859,0.35c0.248,0.102,0.505,0.205,0.753,0.307c0.266,0.109,0.531,0.217,0.797,0.322   c0.275,0.119,0.567,0.23,0.842,0.346c0.257,0.107,0.522,0.209,0.779,0.314c0.275,0.115,0.559,0.227,0.833,0.342   c0.248,0.102,0.505,0.203,0.762,0.309c0.266,0.115,0.549,0.227,0.824,0.342c0.274,0.115,0.549,0.223,0.824,0.332   c0.257,0.111,0.531,0.213,0.789,0.324c0.274,0.115,0.549,0.221,0.824,0.332c0.266,0.111,0.531,0.217,0.797,0.322   c0.266,0.115,0.531,0.223,0.806,0.328c0.257,0.115,0.532,0.217,0.798,0.328c0.266,0.115,0.54,0.221,0.814,0.332   c0.248,0.107,0.514,0.209,0.762,0.314c0.301,0.125,0.611,0.244,0.913,0.367c0.239,0.104,0.487,0.195,0.726,0.293   c0.257,0.111,0.523,0.213,0.78,0.324c0.283,0.115,0.567,0.23,0.851,0.344c0.257,0.111,0.531,0.213,0.788,0.324   c0.274,0.115,0.558,0.227,0.842,0.336c0.257,0.111,0.522,0.213,0.788,0.324c0.257,0.111,0.532,0.213,0.797,0.324   c0.266,0.109,0.532,0.217,0.797,0.326c0.266,0.111,0.532,0.213,0.789,0.324c0.266,0.111,0.532,0.217,0.797,0.322   c0.283,0.121,0.567,0.236,0.85,0.352c0.257,0.105,0.523,0.211,0.789,0.318c0.266,0.115,0.549,0.221,0.824,0.336   c0.257,0.111,0.532,0.213,0.789,0.32c0.274,0.113,0.549,0.221,0.815,0.332c0.266,0.109,0.541,0.217,0.806,0.326   c0.257,0.111,0.522,0.213,0.789,0.324c0.274,0.115,0.567,0.227,0.85,0.342c0.239,0.102,0.487,0.199,0.727,0.297   c0.284,0.119,0.567,0.234,0.851,0.35c0.257,0.109,0.522,0.213,0.789,0.322c0.274,0.115,0.549,0.227,0.833,0.338   c0.266,0.115,0.541,0.221,0.806,0.332c0.257,0.105,0.514,0.207,0.771,0.314c0.274,0.115,0.558,0.225,0.841,0.34   c0.257,0.107,0.523,0.209,0.78,0.314c0.266,0.115,0.531,0.223,0.797,0.328c0.275,0.115,0.559,0.227,0.833,0.342   c0.266,0.111,0.54,0.221,0.815,0.332c0.248,0.105,0.514,0.203,0.762,0.311c0.284,0.119,0.567,0.23,0.859,0.346   c0.248,0.109,0.515,0.211,0.771,0.318c0.266,0.111,0.54,0.217,0.806,0.328c0.274,0.115,0.55,0.221,0.824,0.332   c0.248,0.105,0.505,0.207,0.753,0.309c0.283,0.125,0.585,0.24,0.877,0.359c0.257,0.111,0.531,0.213,0.788,0.318   c0.248,0.107,0.505,0.205,0.753,0.311c0.293,0.119,0.585,0.234,0.877,0.355c0.248,0.105,0.506,0.203,0.754,0.309   c0.274,0.111,0.54,0.223,0.814,0.328c0.274,0.115,0.549,0.227,0.824,0.338c0.248,0.105,0.505,0.207,0.762,0.309   c0.283,0.125,0.576,0.24,0.868,0.355c0.248,0.109,0.514,0.213,0.779,0.318c0.257,0.111,0.522,0.213,0.788,0.324   c0.275,0.115,0.55,0.225,0.833,0.336c0.248,0.111,0.514,0.213,0.771,0.318c0.275,0.115,0.559,0.227,0.842,0.342   c0.257,0.111,0.531,0.213,0.798,0.322c0.248,0.107,0.505,0.209,0.753,0.311c0.301,0.125,0.602,0.244,0.903,0.367   c0.248,0.104,0.496,0.199,0.744,0.303c0.266,0.109,0.54,0.217,0.806,0.326c0.267,0.115,0.541,0.223,0.815,0.332   c0.257,0.107,0.514,0.213,0.779,0.32c0.274,0.115,0.559,0.225,0.842,0.34c0.257,0.115,0.531,0.219,0.798,0.328   c0.257,0.107,0.522,0.213,0.788,0.318c0.266,0.115,0.531,0.223,0.806,0.334c0.284,0.119,0.576,0.234,0.868,0.354   c0.239,0.102,0.487,0.195,0.727,0.293c0.274,0.119,0.559,0.225,0.833,0.34c0.266,0.115,0.54,0.223,0.814,0.332   c0.258,0.111,0.523,0.213,0.789,0.32c0.266,0.115,0.54,0.225,0.814,0.336c0.275,0.115,0.559,0.221,0.833,0.336   c0.257,0.107,0.514,0.209,0.771,0.311c0.266,0.115,0.541,0.227,0.815,0.332c0.266,0.115,0.54,0.223,0.815,0.332   c0.256,0.111,0.522,0.217,0.788,0.324c0.257,0.105,0.522,0.213,0.779,0.318c0.274,0.119,0.559,0.23,0.842,0.346   c0.257,0.105,0.522,0.213,0.788,0.318c0.274,0.115,0.559,0.23,0.833,0.342c0.266,0.111,0.531,0.217,0.797,0.324   c0.267,0.109,0.541,0.221,0.815,0.326c0.257,0.111,0.522,0.217,0.788,0.324c0.257,0.111,0.514,0.213,0.771,0.318   c0.284,0.115,0.559,0.227,0.842,0.342c0.266,0.115,0.541,0.221,0.815,0.332c0.257,0.111,0.522,0.213,0.788,0.318   c0.266,0.115,0.55,0.227,0.815,0.338c0.257,0.109,0.522,0.211,0.779,0.318c0.274,0.115,0.558,0.225,0.842,0.34   c0.257,0.111,0.531,0.213,0.797,0.324c0.257,0.111,0.532,0.217,0.798,0.324c0.257,0.109,0.531,0.217,0.797,0.326   c0.283,0.121,0.576,0.23,0.859,0.346c0.248,0.107,0.505,0.205,0.753,0.307c0.257,0.109,0.531,0.217,0.798,0.328   c0.266,0.115,0.54,0.221,0.814,0.332c0.266,0.115,0.54,0.221,0.815,0.336c0.266,0.111,0.54,0.217,0.806,0.328   c0.257,0.105,0.514,0.207,0.771,0.311c0.284,0.123,0.567,0.234,0.859,0.354c0.257,0.111,0.532,0.217,0.798,0.324   c0.248,0.105,0.505,0.207,0.753,0.309c0.283,0.115,0.566,0.23,0.851,0.346c0.266,0.111,0.54,0.217,0.806,0.328   c0.257,0.111,0.522,0.213,0.788,0.324c0.275,0.115,0.55,0.221,0.833,0.336c0.266,0.111,0.531,0.217,0.807,0.328   c0.248,0.105,0.514,0.207,0.771,0.314c0.274,0.115,0.549,0.225,0.832,0.336c0.267,0.111,0.541,0.217,0.807,0.328   c0.248,0.105,0.505,0.209,0.762,0.314c0.274,0.115,0.559,0.23,0.842,0.346c0.274,0.115,0.558,0.221,0.833,0.336   c0.239,0.102,0.496,0.199,0.735,0.301c0.266,0.111,0.531,0.219,0.797,0.328c0.292,0.119,0.585,0.234,0.868,0.355   c0.274,0.115,0.549,0.221,0.824,0.332c0.248,0.105,0.505,0.203,0.753,0.305c0.274,0.115,0.549,0.223,0.823,0.338   c0.257,0.109,0.532,0.217,0.807,0.326c0.266,0.115,0.549,0.227,0.823,0.338c0.258,0.105,0.515,0.207,0.771,0.309   c0.274,0.115,0.549,0.227,0.823,0.342c0.266,0.111,0.532,0.213,0.798,0.324c0.266,0.109,0.54,0.221,0.814,0.326   c0.266,0.115,0.541,0.223,0.807,0.334c0.257,0.109,0.522,0.211,0.779,0.318c0.266,0.111,0.54,0.221,0.807,0.332   c0.283,0.119,0.575,0.23,0.867,0.35c0.248,0.102,0.496,0.199,0.754,0.307c0.266,0.109,0.54,0.221,0.814,0.332   c0.266,0.109,0.541,0.217,0.807,0.332c0.257,0.105,0.522,0.207,0.779,0.314c0.274,0.115,0.549,0.225,0.814,0.336   c0.275,0.111,0.55,0.223,0.824,0.332c0.266,0.115,0.541,0.223,0.815,0.332c0.266,0.115,0.54,0.217,0.806,0.328   c0.257,0.111,0.514,0.209,0.771,0.314c0.275,0.115,0.559,0.227,0.833,0.342c0.266,0.109,0.541,0.217,0.807,0.328   c0.266,0.109,0.54,0.217,0.806,0.326c0.266,0.111,0.54,0.219,0.807,0.328c0.266,0.111,0.54,0.217,0.806,0.328   c0.257,0.111,0.522,0.213,0.788,0.324c0.267,0.109,0.55,0.221,0.815,0.332c0.266,0.109,0.531,0.213,0.797,0.322   c0.258,0.111,0.523,0.213,0.789,0.324c0.274,0.119,0.558,0.23,0.842,0.34c0.257,0.111,0.531,0.219,0.788,0.324   c0.266,0.111,0.54,0.217,0.806,0.328c0.266,0.109,0.532,0.217,0.807,0.328c0.266,0.115,0.54,0.221,0.814,0.332   c0.275,0.115,0.55,0.221,0.815,0.332c0.248,0.105,0.505,0.203,0.753,0.305c0.283,0.121,0.567,0.234,0.851,0.35   c0.266,0.111,0.531,0.219,0.797,0.324c0.257,0.105,0.515,0.213,0.771,0.318c0.293,0.119,0.585,0.234,0.869,0.355   c0.257,0.105,0.522,0.207,0.788,0.314c0.257,0.109,0.522,0.217,0.788,0.322c0.266,0.111,0.541,0.223,0.815,0.328   c0.266,0.115,0.54,0.221,0.806,0.332c0.257,0.111,0.523,0.213,0.78,0.318c0.274,0.115,0.549,0.223,0.823,0.338   s0.567,0.225,0.851,0.34c0.239,0.107,0.487,0.199,0.727,0.303c0.274,0.109,0.54,0.221,0.815,0.332   c0.283,0.119,0.575,0.234,0.867,0.354c0.248,0.102,0.496,0.199,0.744,0.301c0.275,0.121,0.559,0.227,0.833,0.342   c0.266,0.111,0.532,0.217,0.798,0.324c0.266,0.109,0.54,0.221,0.806,0.332c0.266,0.109,0.531,0.211,0.788,0.322   c0.275,0.115,0.559,0.227,0.842,0.342c0.266,0.111,0.531,0.217,0.807,0.322c0.257,0.111,0.531,0.217,0.797,0.324   c0.266,0.115,0.541,0.221,0.807,0.332s0.54,0.217,0.806,0.328s0.54,0.217,0.807,0.328c0.266,0.109,0.54,0.217,0.806,0.326   c0.257,0.111,0.522,0.213,0.789,0.32c0.266,0.115,0.54,0.225,0.814,0.332c0.257,0.111,0.522,0.213,0.779,0.318   c0.284,0.125,0.576,0.24,0.868,0.355c0.239,0.102,0.487,0.199,0.735,0.301c0.266,0.115,0.541,0.221,0.815,0.336   c0.266,0.111,0.549,0.223,0.814,0.332c0.275,0.115,0.55,0.223,0.815,0.332c0.266,0.115,0.54,0.223,0.806,0.328   c0.267,0.115,0.55,0.223,0.824,0.336c0.257,0.111,0.531,0.213,0.798,0.324c0.266,0.111,0.54,0.217,0.806,0.328   s0.531,0.217,0.797,0.322c0.275,0.115,0.541,0.223,0.815,0.332c0.257,0.111,0.522,0.213,0.779,0.32   c0.275,0.115,0.559,0.225,0.833,0.34c0.266,0.111,0.531,0.213,0.797,0.32c0.257,0.115,0.532,0.217,0.798,0.326   c0.266,0.111,0.531,0.219,0.806,0.328c0.266,0.115,0.541,0.223,0.807,0.332c0.266,0.111,0.549,0.219,0.814,0.332   c0.257,0.107,0.522,0.209,0.78,0.316c0.274,0.119,0.558,0.225,0.832,0.34c0.257,0.111,0.523,0.213,0.789,0.318   c0.274,0.115,0.549,0.227,0.823,0.342c0.257,0.102,0.505,0.203,0.762,0.307c0.275,0.119,0.567,0.234,0.842,0.35   c0.266,0.109,0.541,0.217,0.807,0.322c0.266,0.115,0.531,0.217,0.797,0.328c0.266,0.115,0.54,0.221,0.815,0.332   c0.266,0.111,0.54,0.217,0.806,0.328s0.541,0.217,0.807,0.328c0.266,0.109,0.54,0.217,0.806,0.328   c0.266,0.109,0.541,0.217,0.807,0.326c0.266,0.111,0.54,0.219,0.806,0.328c0.257,0.107,0.514,0.209,0.771,0.314   c0.284,0.119,0.585,0.24,0.868,0.355c0.248,0.105,0.505,0.203,0.753,0.301c0.267,0.115,0.532,0.221,0.798,0.332   c0.274,0.115,0.549,0.221,0.814,0.332c0.275,0.115,0.55,0.227,0.824,0.336c0.257,0.111,0.531,0.213,0.797,0.324   c0.267,0.115,0.55,0.227,0.824,0.336c0.257,0.107,0.514,0.209,0.771,0.314c0.266,0.115,0.55,0.223,0.824,0.338   c0.266,0.115,0.54,0.221,0.815,0.332c0.266,0.109,0.54,0.217,0.806,0.328c0.266,0.109,0.54,0.217,0.807,0.326   c0.257,0.111,0.531,0.219,0.788,0.324c0.274,0.115,0.549,0.221,0.814,0.332c0.267,0.111,0.541,0.217,0.815,0.328   c0.257,0.111,0.522,0.213,0.788,0.322c0.275,0.115,0.559,0.223,0.833,0.338c0.257,0.111,0.531,0.213,0.788,0.318   c0.248,0.107,0.496,0.209,0.744,0.311c0.293,0.119,0.585,0.234,0.868,0.354c0.267,0.111,0.532,0.213,0.798,0.324   s0.54,0.221,0.814,0.332c0.267,0.111,0.541,0.217,0.807,0.328c0.257,0.109,0.522,0.213,0.788,0.318   c0.266,0.115,0.532,0.221,0.807,0.328c0.274,0.119,0.558,0.23,0.842,0.346c0.248,0.105,0.496,0.203,0.743,0.305   c0.275,0.115,0.559,0.227,0.833,0.342s0.559,0.225,0.833,0.336c0.257,0.107,0.514,0.209,0.762,0.311   c0.274,0.115,0.559,0.227,0.833,0.342c0.266,0.109,0.54,0.217,0.806,0.326c0.266,0.111,0.541,0.219,0.807,0.328   c0.266,0.111,0.54,0.217,0.806,0.328c0.257,0.105,0.514,0.209,0.771,0.314c0.284,0.125,0.585,0.24,0.878,0.354   c0.238,0.104,0.478,0.195,0.717,0.297c0.293,0.121,0.585,0.236,0.868,0.355c0.257,0.105,0.514,0.207,0.771,0.314   c0.275,0.115,0.55,0.221,0.824,0.336c0.266,0.111,0.54,0.217,0.807,0.328c0.266,0.105,0.522,0.213,0.788,0.318   c0.266,0.115,0.531,0.223,0.806,0.328c0.267,0.115,0.541,0.223,0.815,0.336c0.266,0.111,0.531,0.219,0.807,0.328   c0.266,0.111,0.54,0.223,0.814,0.332c0.266,0.111,0.54,0.219,0.807,0.328c0.15,0.062,0.301,0.125,0.46,0.186   c67.832-54.303,111.328-137.748,111.328-231.403c0-17.186-1.541-34-4.35-50.384l-0.603-0.013L712.654,245.622z" fill="#3C3C3B"></path></g><g><path d="M441.062,183.81c2.118,1.382,4.465,3.349,7.078,5.944c2.499,2.702,4.935,6.015,7.3,9.922   c2.277,3.694,4.271,8.026,5.989,13.04c1.391,4.987,2.011,10.799,1.878,17.416c-0.443,12.137-3.331,21.784-8.646,28.968   c-2.587,3.482-5.333,6.68-8.221,9.594c-3.198,2.915-6.591,5.882-10.188,8.912c-2.073,2.046-3.978,4.376-5.759,6.989   c-2.072,2.729-3.145,5.891-3.225,9.541c-0.07,3.553,0.913,6.476,2.933,8.841c1.71,2.24,3.393,4.207,5.015,5.9l11.321,9.664   c7.024,5.998,13.164,12.562,18.417,19.736c4.926,7.283,7.379,16.717,7.37,28.295c-0.336,16.443-7.901,30.848-22.678,43.258   c-15.317,12.836-37.181,19.162-65.582,19.029c-23.768-0.709-41.397-6.139-52.922-16.283c-11.623-9.496-17.319-20.686-17.053-33.566   c0.124-6.271,2.188-13.242,6.201-20.871c3.889-7.617,10.781-14.262,20.694-19.896c11.109-6.033,22.74-10,34.877-11.852   c12.021-1.508,21.979-2.295,29.907-2.357c-2.374-3.27-4.5-6.75-6.343-10.443c-2.152-3.598-3.171-7.912-3.074-12.873   c0.062-3.002,0.531-5.501,1.417-7.467c0.788-2.108,1.532-4.022,2.197-5.794c-3.862,0.363-7.512,0.522-10.914,0.452   c-18.063-0.603-31.706-6.564-40.954-17.895c-9.709-10.586-14.422-22.767-14.139-36.551c0.345-16.663,7.671-31.625,21.996-44.923   c9.807-7.733,19.932-12.703,30.377-14.936c10.347-1.887,20.012-2.737,29.003-2.551l67.849,1.382l-21.199,11.809L441.062,183.81z    M450.179,379.385c0.177-8.611-2.48-16.158-7.964-22.678c-5.812-6.176-14.945-13.82-27.409-22.918   c-2.17-0.266-4.704-0.416-7.619-0.479c-1.718-0.248-6.157-0.125-13.297,0.381c-7.042,0.842-14.263,2.295-21.66,4.359   c-1.736,0.629-4.181,1.576-7.344,2.834c-3.163,1.381-6.387,3.348-9.691,5.926c-3.189,2.693-5.9,6.068-8.142,10.109   c-2.578,4.252-3.915,9.416-4.03,15.484c-0.248,11.924,4.934,21.846,15.573,29.791c10.117,7.938,24.069,12.199,41.894,12.783   c15.999,0.107,28.277-3.18,36.834-9.85C445.679,398.555,449.957,389.988,450.179,379.385z M404.911,278.971   c8.938-0.151,16.451-3.216,22.519-9.169c2.968-4.252,4.907-8.638,5.811-13.164c0.594-4.518,0.922-8.318,0.984-11.419   c0.274-13.377-2.88-26.948-9.436-40.671c-3.083-6.582-7.202-11.986-12.357-16.176c-5.271-3.96-11.375-6.148-18.32-6.511   c-9.205,0.036-16.912,3.579-23.157,10.639c-5.298,7.424-7.929,15.777-7.885,25.062c-0.248,12.27,3.065,25.105,9.975,38.527   c3.367,6.254,7.725,11.596,13.146,16.017C391.596,276.552,397.841,278.829,404.911,278.971z" fill="#FFFFFF"></path><polygon fill="#FFFFFF" points="574.352,211.378 538.758,210.652 539.483,175.04 522.235,174.686 521.51,210.298 485.906,209.571    485.561,226.819 521.155,227.546 520.429,263.14 537.677,263.495 538.403,227.9 574.006,228.626  "></polygon></g></svg>