<svg xmlns="http://www.w3.org/2000/svg" viewBox="0 0 25 18" width="25" height="18"><style>
		tspan { white-space:pre }
		.shp0 { fill: #ececec } 
	</style><g id="Top Footer"><g id="Right Column"><path id="Twitter Icon" class="shp0" d="M1.17 13.33C1.17 13.33 4.33 14.78 5.65 14.78C5.65 14.78 8.15 15.46 9.81 13.3C9.81 13.3 10.21 12.7 9.66 12.42C9.66 12.42 4.27 10.83 4.65 9.9C4.65 9.9 4.63 9.37 5.32 9.49C5.32 9.49 6.1 8.72 5.72 8.48C5.72 8.48 5.12 7.7 5.6 7.65C5.6 7.65 6.82 7.98 7.27 8.1C7.27 8.1 7.58 7.99 7.3 7.78C7.01 7.56 6.5 7.14 6.6 7.04C6.6 7.04 6.8 6.58 7.56 6.91C7.56 6.91 7.8 6.86 7.58 6.62C7.58 6.62 7.03 6.24 7.34 5.93C7.34 5.93 8.22 5.3 10.44 8C10.44 8 10.85 8.55 10.9 8.02C10.9 8.02 12.51 1.16 15.12 0.7C15.12 0.7 15.95 0.87 16.12 0.61C16.12 0.61 16.84 0.32 17.08 0.56C17.08 0.56 17.32 0.92 17.61 0.7C17.61 0.7 18.64 0.3 18.33 0.96C18.33 0.96 17.27 1.91 16.91 1.94C16.55 1.96 16.62 2.3 16.93 2.34C16.93 2.34 21.31 2.73 21.31 5.93C21.31 5.93 21.56 6.69 22.37 5.9C22.37 5.9 23.6 5.12 23.91 5.08C23.91 5.08 24.25 4.87 24.2 5.37C24.2 5.37 23.32 6.9 22.41 7.33C22.41 7.33 21.86 8.03 22.65 7.88C22.65 7.88 23.41 7.72 23.77 7.51C23.77 7.51 24.7 7.05 24.27 7.87C24.27 7.87 22.31 9.14 21.88 9.14C21.88 9.14 21.59 9.21 21.59 9.48C21.59 9.48 21.33 17.84 10.38 17.84C10.38 17.84 4.9 18.16 1.31 13.95C1.31 13.95 0.62 13.21 1.17 13.33Z"></path></g></g></svg>